<svg width="128" height="50" viewBox="0 0 128 50" fill="none" xmlns="http://www.w3.org/2000/svg">
<path d="M53.2948 48.27C53.2948 47.4767 53.9194 46.8562 54.7194 46.8562C55.5194 46.8562 56.144 47.4767 56.144 48.27C56.144 49.0633 55.5194 49.6827 54.7194 49.6827C53.9194 49.6827 53.2948 49.0633 53.2948 48.27Z" fill="#FF2E70"/>
<path d="M62.7704 14.0686C62.7704 10.1878 65.0744 7.81026 68.5482 7.81026C72.022 7.81026 74.3261 10.1867 74.3261 14.0686C74.3261 17.9505 72.0339 20.3386 68.5482 20.3386C65.0626 20.3386 62.7704 17.961 62.7704 14.0686ZM71.7791 14.0686C71.7791 11.3937 70.505 9.85405 68.5482 9.85405C66.5915 9.85405 65.3174 11.3925 65.3174 14.0686C65.3174 16.7446 66.5915 18.2948 68.5482 18.2948C70.505 18.2948 71.7791 16.7564 71.7791 14.0686Z" fill="#FF2E70"/>
<path d="M85.7762 20.1094H83.3786V18.0657H83.3205C82.6485 19.5124 81.41 20.3269 79.5457 20.3269C76.8944 20.3269 75.273 18.6157 75.273 15.8491V8.02888H77.775V15.3661C77.775 17.203 78.6556 18.1914 80.38 18.1914C82.1045 18.1914 83.2755 16.9515 83.2755 15.0687V8.03005H85.7762V20.1094Z" fill="#FF2E70"/>
<path d="M87.202 8.02887H89.5878V10.0844H89.6459C90.0512 8.67174 91.1392 7.83378 92.5757 7.83378C92.9348 7.83378 93.2477 7.89137 93.4326 7.92545V10.2337C93.2359 10.1538 92.7961 10.0962 92.309 10.0962C90.6995 10.0962 89.704 11.1645 89.704 12.8745V20.1083H87.2032V8.02887H87.202Z" fill="#FF2E70"/>
<path d="M67.1485 31.1523C66.8012 33.3571 64.694 34.9296 61.9028 34.9296C58.3247 34.9296 56.1594 32.5297 56.1594 28.7171C56.1594 24.9045 58.3591 22.4012 61.7985 22.4012C65.238 22.4012 67.2872 24.767 67.2872 28.4292V29.2789H58.6838V29.4281C58.6838 31.5295 59.9579 32.9187 61.9609 32.9187C63.3855 32.9187 64.4392 32.2065 64.7746 31.1511H67.1485V31.1523ZM58.6957 27.5465H64.7864C64.7283 25.6978 63.5479 24.4003 61.7985 24.4003C60.0492 24.4003 58.8225 25.7213 58.6957 27.5465Z" fill="#FF2E70"/>
<path d="M71.8881 30.2567L69.1894 34.7004H66.4801L70.4979 28.6724L66.5381 22.621H69.3399L72.0031 26.9953H72.0505L74.6781 22.621H77.4348L73.4395 28.5925L77.3886 34.7004H74.6318L71.9462 30.2567H71.8881Z" fill="#FF2E70"/>
<path d="M89.813 28.6607C89.813 32.4838 87.7863 34.9072 84.7297 34.9072C82.9815 34.9072 81.5913 34.0575 80.8968 32.7142H80.8387V36.5761H78.3379V22.621H80.7581V24.7H80.8043C81.5226 23.3109 82.9235 22.4259 84.6835 22.4259C87.7757 22.4259 89.813 24.8375 89.813 28.6607ZM87.2423 28.6607C87.2423 26.135 86.0026 24.5155 84.0233 24.5155C82.0441 24.5155 80.8269 26.1691 80.8269 28.6607C80.8269 31.1523 82.1009 32.8059 84.0233 32.8059C85.9457 32.8059 87.2423 31.1981 87.2423 28.6607Z" fill="#FF2E70"/>
<path d="M101.591 31.1523C101.244 33.3571 99.1369 34.9296 96.3458 34.9296C92.7677 34.9296 90.6023 32.5297 90.6023 28.7171C90.6023 24.9045 92.8021 22.4012 96.2415 22.4012C99.6809 22.4012 101.73 24.767 101.73 28.4292V29.2789H93.1268V29.4281C93.1268 31.5295 94.4009 32.9187 96.4039 32.9187C97.8285 32.9187 98.8821 32.2065 99.2175 31.1511H101.591V31.1523ZM93.1387 27.5465H99.2294C99.1713 25.6978 97.9909 24.4003 96.2415 24.4003C94.4922 24.4003 93.2655 25.7213 93.1387 27.5465Z" fill="#FF2E70"/>
<path d="M116.444 28.7477C116.444 24.8669 118.748 22.4894 122.222 22.4894C125.696 22.4894 128 24.8669 128 28.7477C128 32.6284 125.707 35.0177 122.222 35.0177C118.738 35.0177 116.444 32.6401 116.444 28.7477ZM125.453 28.7477C125.453 26.0728 124.179 24.5331 122.222 24.5331C120.265 24.5331 118.991 26.0716 118.991 28.7477C118.991 31.4237 120.265 32.9727 122.222 32.9727C124.179 32.9727 125.453 31.4343 125.453 28.7477Z" fill="#FF2E70"/>
<path d="M64.7746 41.4018C64.5197 40.116 63.5467 39.0935 61.9147 39.0935C59.9804 39.0935 58.7064 40.6896 58.7064 43.2845C58.7064 45.8795 59.9911 47.4755 61.9372 47.4755C63.4768 47.4755 64.4854 46.6376 64.7746 45.2367H67.1829C66.9162 47.8081 64.8433 49.5534 61.9147 49.5534C58.429 49.5534 56.1594 47.1876 56.1594 43.2845C56.1594 39.3815 58.429 37.0262 61.891 37.0262C65.0294 37.0262 66.9399 39.0242 67.1604 41.4006H64.7746V41.4018Z" fill="#FF2E70"/>
<path d="M67.8513 43.2857C67.8513 39.405 70.1554 37.0274 73.6292 37.0274C77.103 37.0274 79.407 39.405 79.407 43.2857C79.407 47.1664 77.1148 49.5558 73.6292 49.5558C70.1435 49.5558 67.8513 47.1782 67.8513 43.2857ZM76.86 43.2857C76.86 40.6108 75.5859 39.0712 73.6292 39.0712C71.6724 39.0712 70.3983 40.6096 70.3983 43.2857C70.3983 45.9618 71.6724 47.5108 73.6292 47.5108C75.5859 47.5108 76.86 45.9724 76.86 43.2857Z" fill="#FF2E70"/>
<path d="M80.3113 37.246H82.6971V39.2781H82.7552C83.2992 37.9347 84.5733 37.0392 86.2171 37.0392C87.861 37.0392 89.1351 37.9006 89.621 39.405H89.6791C90.3037 37.9347 91.7401 37.0392 93.4776 37.0392C95.8859 37.0392 97.4611 38.6234 97.4611 41.0233V49.3254H94.9485V41.6204C94.9485 40.0584 94.1022 39.1629 92.6207 39.1629C91.1392 39.1629 90.1081 40.2535 90.1081 41.7814V49.3254H87.6536V41.437C87.6536 40.0479 86.7623 39.1629 85.3496 39.1629C83.8681 39.1629 82.8132 40.3111 82.8132 41.8613V49.3254H80.3125V37.246H80.3113Z" fill="#FF2E70"/>
<path d="M62.6732 10.0339V8.07H60.3573V5.69596H58.6862C58.4954 7.02989 57.8767 8.17342 56.0729 8.39085V10.0339H57.8447V16.9245C57.8447 19.255 58.8059 20.1858 61.2723 20.1858C61.8282 20.1858 62.384 20.14 62.6614 20.0707V18.1068C62.499 18.1409 62.0937 18.1644 61.8388 18.1644C60.8196 18.1644 60.3562 17.6943 60.3562 16.6483V10.0339H62.6732Z" fill="#FF2E70"/>
<path d="M105.575 25.6567C105.575 25.6567 105.772 25.1643 106.537 24.8411C106.751 24.7447 106.984 24.6754 107.238 24.6366C107.663 24.5602 108.197 24.539 108.852 24.6084V22.4282C108.667 22.3942 108.354 22.3366 107.995 22.3366C106.56 22.3366 105.471 23.1745 105.065 24.5872H105.007V22.5317H102.623V34.6111H105.123V27.3773C105.123 26.6956 105.283 26.1186 105.576 25.6673V25.6567H105.575Z" fill="#FF2E70"/>
<path d="M116.486 24.8517V22.8878H114.17V20.5137H112.499C112.308 21.8477 111.689 22.9912 109.885 23.2086V24.8517H111.657V31.7422C111.657 34.0728 112.619 35.0036 115.085 35.0036C115.641 35.0036 116.197 34.9578 116.474 34.8884V32.9246C116.312 32.9586 115.906 32.9822 115.651 32.9822C114.632 32.9822 114.17 32.512 114.17 31.4661V24.8517H116.486Z" fill="#FF2E70"/>
<path d="M39.0795 40.6038C41.1204 43.8005 43.7492 46.9537 47.1649 49.9777C47.1649 49.9777 37.6478 50.5324 27.4243 46.1099C28.4946 45.9301 29.566 45.7021 30.6303 45.3671C33.8587 44.3517 36.6961 42.6957 39.0795 40.6049" fill="#FF2E70"/>
<path d="M32.6297 21.843C30.379 23.2756 25.7816 25.8741 20.4103 27.9508C15.877 29.7031 11.4301 30.5235 9.68194 30.802C14.4666 38.7045 21.08 43.3656 27.4243 46.1099C28.4946 45.9301 29.566 45.7021 30.6303 45.3671C33.8587 44.3517 36.6961 42.6957 39.0783 40.6049C35.0748 34.3337 33.3621 27.8486 32.6285 21.843" fill="#D6006D"/>
<path d="M12.8606 35.2892C12.7611 35.1693 12.6627 35.0494 12.5643 34.9272C12.6627 35.0494 12.7611 35.1681 12.8606 35.2892Z" fill="#A66AFE"/>
<path d="M13.9143 36.5138C13.8064 36.3939 13.6986 36.2741 13.5907 36.1518C13.6974 36.2741 13.8064 36.3928 13.9143 36.5138Z" fill="#A66AFE"/>
<path d="M17.1842 39.7258C17.0716 39.6283 16.9579 39.5307 16.8453 39.4308C16.9579 39.5307 17.0705 39.6283 17.1842 39.7258Z" fill="#A66AFE"/>
<path d="M16.6201 39.2263C16.5087 39.1264 16.3973 39.0265 16.287 38.9243C16.3973 39.0265 16.5087 39.1253 16.6201 39.2263Z" fill="#A66AFE"/>
<path d="M16.0642 38.7139C15.954 38.6105 15.845 38.5083 15.7359 38.4025C15.845 38.5071 15.9552 38.6105 16.0642 38.7139Z" fill="#A66AFE"/>
<path d="M15.5143 38.1862C15.4064 38.0805 15.2974 37.9735 15.1896 37.8654C15.2974 37.9735 15.4064 38.0793 15.5143 38.1862Z" fill="#A66AFE"/>
<path d="M14.9738 37.6444C14.866 37.534 14.757 37.4235 14.6491 37.3107C14.757 37.4235 14.8648 37.5328 14.9738 37.6444Z" fill="#A66AFE"/>
<path d="M27.4243 46.1099C27.2264 46.0241 27.0273 45.9371 26.8294 45.8466C27.0285 45.9359 27.2264 46.0241 27.4243 46.1099Z" fill="#A66AFE"/>
<path d="M9.71157 30.849C9.79335 30.9854 9.87868 31.117 9.96165 31.251C9.87868 31.117 9.79453 30.9842 9.71157 30.849Z" fill="#A66AFE"/>
<path d="M10.4239 31.9738C10.3314 31.8327 10.239 31.6941 10.1489 31.5507C10.2402 31.6929 10.3326 31.8327 10.4239 31.9738Z" fill="#A66AFE"/>
<path d="M10.8897 32.6684C10.7972 32.5332 10.7048 32.3992 10.6123 32.2629C10.7036 32.4004 10.7972 32.5332 10.8897 32.6684Z" fill="#A66AFE"/>
<path d="M11.8651 34.0258C11.7667 33.8942 11.6671 33.7649 11.57 33.6309C11.6671 33.7637 11.7667 33.8942 11.8651 34.0258Z" fill="#A66AFE"/>
<path d="M11.3709 33.3535C11.276 33.2219 11.1812 33.0903 11.0864 32.9575C11.18 33.0914 11.2749 33.2219 11.3709 33.3535Z" fill="#A66AFE"/>
<path d="M14.4417 37.0897C14.3327 36.9734 14.2236 36.8594 14.1169 36.7407C14.2248 36.8582 14.3338 36.9734 14.4417 37.0897Z" fill="#A66AFE"/>
<path d="M23.6116 44.2259C23.4907 44.1578 23.3686 44.0908 23.2477 44.0214C23.3686 44.0908 23.4895 44.1578 23.6116 44.2259Z" fill="#A66AFE"/>
<path d="M17.4082 39.9209C17.5196 40.0161 17.6311 40.1078 17.7425 40.2006C17.6311 40.1078 17.5185 40.0149 17.4082 39.9209Z" fill="#A66AFE"/>
<path d="M23.0059 43.8804C22.8886 43.8122 22.7701 43.7441 22.6527 43.6736C22.7701 43.7441 22.8886 43.8111 23.0059 43.8804Z" fill="#A66AFE"/>
<path d="M26.6812 45.7785C26.5331 45.7103 26.3837 45.6433 26.2344 45.5728C26.3837 45.6421 26.5331 45.7103 26.6812 45.7785Z" fill="#A66AFE"/>
<path d="M25.0397 44.9887C25.1807 45.0604 25.3218 45.1297 25.4628 45.2002C25.3218 45.1309 25.1807 45.0604 25.0397 44.9887Z" fill="#A66AFE"/>
<path d="M22.4181 43.5302C22.2984 43.4585 22.1786 43.3856 22.0601 43.3127C22.1798 43.3868 22.2995 43.4585 22.4181 43.5302Z" fill="#A66AFE"/>
<path d="M21.8183 43.16C21.701 43.0859 21.5849 43.0131 21.4687 42.9378C21.5849 43.0131 21.7022 43.0859 21.8183 43.16Z" fill="#A66AFE"/>
<path d="M18.309 40.6637C18.1976 40.5744 18.0873 40.4874 17.9771 40.3969C18.0873 40.4874 18.1988 40.5755 18.309 40.6637Z" fill="#A66AFE"/>
<path d="M19.4598 41.5487C19.3484 41.4664 19.237 41.3853 19.1256 41.3007C19.237 41.3841 19.3484 41.4664 19.4598 41.5487Z" fill="#A66AFE"/>
<path d="M20.6284 42.3796C20.5158 42.3032 20.4032 42.2268 20.2906 42.1481C20.4032 42.2268 20.5158 42.302 20.6284 42.3796Z" fill="#A66AFE"/>
<path d="M20.0441 41.9718C19.9315 41.8918 19.8189 41.8131 19.7075 41.7308C19.8201 41.8119 19.9327 41.8918 20.0441 41.9718Z" fill="#A66AFE"/>
<path d="M26.6812 45.7785C26.5331 45.7103 26.3837 45.6433 26.2344 45.5728C26.1704 45.5422 26.1052 45.5105 26.04 45.4799C25.9061 45.4165 25.771 45.353 25.6371 45.2872C25.579 45.259 25.5209 45.2296 25.464 45.2014C25.323 45.1309 25.1819 45.0615 25.0409 44.9899C24.9567 44.9475 24.8726 44.9017 24.7873 44.8582C24.6723 44.7983 24.5573 44.7407 24.4436 44.6796C24.3594 44.6349 24.2753 44.5891 24.1923 44.5433C24.0773 44.481 23.9612 44.4199 23.8462 44.3564C23.7692 44.3141 23.691 44.2694 23.6139 44.2259C23.493 44.1578 23.371 44.0908 23.2501 44.0214C23.1695 43.9756 23.0889 43.9262 23.0071 43.8804C22.8898 43.8122 22.7712 43.7441 22.6539 43.6736C22.5757 43.6265 22.4975 43.5784 22.4181 43.5302C22.2984 43.4573 22.1786 43.3856 22.0601 43.3116C21.9795 43.2622 21.8989 43.2093 21.8183 43.1588C21.701 43.0847 21.5849 43.0119 21.4675 42.9367C21.3834 42.8826 21.2992 42.8262 21.2163 42.7709C21.1037 42.6969 20.9911 42.624 20.8785 42.5488C20.7955 42.4924 20.7126 42.4348 20.6284 42.3784C20.5158 42.302 20.4032 42.2256 20.2906 42.1469C20.2077 42.0893 20.1259 42.0294 20.0441 41.9706C19.9315 41.8907 19.8189 41.8119 19.7075 41.7297C19.6245 41.6697 19.5428 41.6074 19.461 41.5475C19.3496 41.4652 19.2382 41.3841 19.1268 41.2995C19.045 41.2372 18.9632 41.1738 18.8814 41.1103C18.7712 41.0257 18.6598 40.9411 18.5496 40.8541C18.469 40.7906 18.3896 40.726 18.3102 40.6613C18.1988 40.572 18.0885 40.4851 17.9771 40.3946C17.8989 40.3299 17.8219 40.2641 17.7436 40.1995C17.6322 40.1066 17.5196 40.0138 17.4094 39.9198C17.3336 39.8563 17.2601 39.7893 17.1854 39.7247C17.0728 39.6271 16.959 39.5296 16.8465 39.4297C16.7706 39.3627 16.6959 39.2933 16.6213 39.2252C16.5099 39.1253 16.3984 39.0254 16.2882 38.9231C16.2136 38.8538 16.1389 38.7821 16.0654 38.7128C15.9552 38.6093 15.8462 38.5071 15.7359 38.4025C15.6613 38.3308 15.589 38.2567 15.5155 38.1851C15.4076 38.0781 15.2986 37.9723 15.1907 37.8642C15.1184 37.7913 15.0473 37.7161 14.975 37.6433C14.8672 37.5328 14.7581 37.4223 14.6503 37.3095C14.5804 37.2366 14.5116 37.1614 14.4429 37.0874C14.3338 36.971 14.2248 36.857 14.1181 36.7383C14.0494 36.6643 13.983 36.5867 13.9155 36.5115C13.8076 36.3916 13.6998 36.2729 13.5919 36.1495C13.5232 36.0719 13.4556 35.9908 13.3881 35.9121C13.2838 35.791 13.1783 35.67 13.0752 35.5466C13.004 35.4608 12.9329 35.3738 12.8618 35.2868C12.7635 35.167 12.6639 35.0471 12.5655 34.9249C12.4956 34.8379 12.428 34.7497 12.3581 34.6616C12.2597 34.537 12.1602 34.4124 12.063 34.2855C11.9966 34.1997 11.9314 34.1104 11.8663 34.0234C11.7679 33.893 11.6683 33.7625 11.5711 33.6285C11.5036 33.5369 11.4384 33.444 11.372 33.3512C11.2772 33.2196 11.1824 33.0879 11.0876 32.9539C11.0212 32.8587 10.956 32.7612 10.8908 32.666C10.7984 32.5308 10.7048 32.3969 10.6135 32.2605C10.5507 32.1653 10.4879 32.0678 10.4251 31.9714C10.3326 31.8304 10.2402 31.6917 10.1501 31.5483C10.0873 31.4496 10.0257 31.3473 9.96284 31.2474C9.87987 31.1135 9.79454 30.9807 9.71276 30.8455C7.52371 31.2392 5.29198 31.526 3.02352 31.6917C2.5767 31.7246 2.13225 31.7493 1.68662 31.7728C5.79806 42.0211 16.5976 47.9268 27.4267 46.1064C27.2288 46.0206 27.0296 45.9336 26.8317 45.8431C26.7819 45.8208 26.7322 45.7973 26.6824 45.7749" fill="#FF2E70"/>
<path d="M31.0807 22.8055C30.8353 22.9536 30.59 23.1028 30.3435 23.2474C30.5686 23.1205 30.8318 22.9642 31.0889 22.8079L31.0795 22.8055H31.0807Z" fill="#A66AFE"/>
<path d="M44.292 12.2093C44.292 12.2093 44.2908 12.2069 44.2908 12.2058C44.2908 12.2069 44.292 12.2081 44.292 12.2093Z" fill="#A66AFE"/>
<path d="M1.71625 31.8598H1.72099C1.70914 31.8327 1.6961 31.8045 1.68543 31.7763C2.12988 31.7528 2.57551 31.7281 3.02233 31.6952C5.29198 31.5295 7.52251 31.2427 9.71157 30.849L9.5492 30.594C3.42885 21.1354 3.33285 11.2033 3.33285 11.1915C0.0083811 16.7176 -1.01089 23.5741 1.10587 30.1921C1.28839 30.7609 1.4958 31.3144 1.71625 31.8598Z" fill="#A66AFE"/>
<path d="M45.9347 16.0889C45.4962 14.7197 44.9415 13.4198 44.2861 12.1952C40.8194 15.8491 36.9059 19.0905 32.6273 21.8406C32.6285 21.8512 32.6309 21.8665 32.6333 21.8829H32.6344C33.3681 27.8885 35.0759 34.3337 39.0807 40.6049C45.8411 34.6804 48.8384 25.1666 45.9347 16.0889Z" fill="#FF2E70"/>
<path d="M9.68195 30.8008C11.4301 30.5235 15.877 29.7031 20.4103 27.9508C25.7805 25.8741 30.3778 23.2768 32.6285 21.8441C32.6131 21.7372 32.5716 21.4504 32.5218 21.0426L32.5373 21.0379C31.3817 10.3959 33.7924 2.21247 33.7924 2.21247C13.1083 -5.97327 3.33286 11.1903 3.33286 11.1903C3.33286 11.1903 3.4253 21.1296 9.5492 30.5928L9.71157 30.849C9.70209 30.8338 9.69142 30.8173 9.68194 30.802" fill="#6C58FE"/>
<path d="M33.7912 2.21717C33.7592 2.32764 31.3888 10.4675 32.5373 21.0367L32.5219 21.0414C32.5515 21.2859 32.5787 21.4857 32.5989 21.6302C32.6119 21.7278 32.6226 21.7983 32.6285 21.8394C36.9059 19.0905 40.8194 15.8491 44.2861 12.1952C41.905 7.7421 38.18 4.33148 33.7924 2.21717" fill="#A46AFE"/>
</svg>
